<svg width="26" height="26" viewBox="0 0 26 26" fill="none" xmlns="http://www.w3.org/2000/svg">
<path opacity="0.4" fill-rule="evenodd" clip-rule="evenodd" d="M11.2562 5.74708C10.8492 5.84894 10.5445 6.02288 10.2375 6.32865C9.92142 6.64361 9.73032 6.99043 9.64228 7.40904C9.60965 7.56403 9.58838 8.2277 9.58838 9.08899V10.5128H17.5651H25.5419V9.08899C25.5419 8.21044 25.5209 7.56713 25.487 7.40904C25.3088 6.57637 24.6393 5.90642 23.8112 5.73228C23.4236 5.65073 11.5854 5.6647 11.2562 5.74708ZM19.3551 7.46773C19.5696 7.57718 19.7406 7.85569 19.7406 8.09557C19.7406 8.46507 19.3832 8.82073 19.0119 8.82073C18.787 8.82073 18.4883 8.63272 18.382 8.42422C18.2034 8.07426 18.3155 7.69219 18.6574 7.48523C18.8888 7.34513 19.1041 7.33972 19.3551 7.46773ZM22.2557 7.46773C22.4702 7.57718 22.6412 7.85569 22.6412 8.09557C22.6412 8.46507 22.2838 8.82073 21.9125 8.82073C21.6876 8.82073 21.389 8.63272 21.2826 8.42422C21.1041 8.07426 21.2161 7.69219 21.558 7.48523C21.7895 7.34513 22.0048 7.33972 22.2557 7.46773Z" fill="#2C2B46"/>
<path fill-rule="evenodd" clip-rule="evenodd" d="M2.45888 0.815467C2.05182 0.917328 1.74711 1.09127 1.44018 1.39704C1.12406 1.712 0.932953 2.05882 0.844919 2.47743C0.808274 2.65166 0.791016 3.80815 0.791016 6.09114V9.44867H4.46515H8.13929V8.47976C8.13929 7.40846 8.19783 6.99101 8.42384 6.45043C8.7737 5.61365 9.50882 4.87746 10.3524 4.51909C10.9924 4.24721 11.2115 4.22753 13.6001 4.22753H15.7776V3.48057C15.7776 3.06974 15.753 2.61836 15.7228 2.47743C15.5446 1.64476 14.875 0.974809 14.047 0.800674C13.6601 0.719263 2.78776 0.733186 2.45888 0.815467ZM4.75647 4.7116C4.87931 4.77425 4.982 4.87693 5.04465 4.99977C5.13385 5.17468 5.14196 5.28346 5.14196 6.30632C5.14196 7.32918 5.13385 7.43795 5.04465 7.61286C4.93462 7.82852 4.6564 7.99835 4.41323 7.99835C4.18838 7.99835 3.88971 7.81034 3.78336 7.60184C3.70088 7.44017 3.69184 7.30868 3.69368 6.29616C3.69595 5.02022 3.71539 4.93693 4.05872 4.7291C4.29019 4.589 4.50552 4.58358 4.75647 4.7116ZM0.791016 17.2055C0.791016 21.7241 0.806584 23.5846 0.845839 23.7682C1.0236 24.5987 1.69113 25.2663 2.52168 25.444C2.69726 25.4816 3.73506 25.4988 5.82057 25.4988H8.86323L8.69519 25.2361C8.52304 24.967 8.38028 24.6451 8.24356 24.2177C8.17462 24.0021 8.16467 23.2707 8.15161 17.4375L8.13692 10.899H4.46399H0.791016V17.2055ZM9.5896 17.7373C9.5896 21.8595 9.60531 23.5853 9.64443 23.7682C9.82219 24.5987 10.4897 25.2663 11.3203 25.444C11.6797 25.5209 23.4474 25.5218 23.8124 25.4449C24.6328 25.2721 25.3179 24.5871 25.4894 23.7682C25.527 23.5888 25.5431 21.7812 25.5431 17.7373V11.9626H17.5663H9.5896V17.7373ZM4.75647 12.4466C4.87931 12.5093 4.982 12.612 5.04465 12.7348C5.13771 12.9172 5.14196 13.0164 5.14196 15.0082C5.14196 17.0001 5.13771 17.0992 5.04465 17.2816C4.93462 17.4973 4.6564 17.6671 4.41323 17.6671C4.18838 17.6671 3.88971 17.4791 3.78336 17.2706C3.6974 17.1021 3.69179 16.9598 3.69368 14.9981C3.69595 12.6426 3.68947 12.6877 4.05872 12.4641C4.29019 12.324 4.50552 12.3186 4.75647 12.4466ZM18.7024 13.5547C20.3133 13.9749 21.5757 15.2448 22.0216 16.8936C22.1135 17.2336 22.1327 17.4257 22.1327 18.0055C22.1327 18.5854 22.1135 18.7775 22.0216 19.1174C21.5761 20.7651 20.331 22.019 18.7024 22.4603C18.1301 22.6154 17.0307 22.6151 16.4544 22.4597C14.8026 22.0145 13.5608 20.7789 13.1091 19.1312C12.9605 18.5888 12.9605 17.4223 13.1091 16.8799C13.6087 15.0575 15.0764 13.7487 16.962 13.4443C17.2971 13.3902 18.3207 13.4551 18.7024 13.5547ZM16.8895 14.9384C16.0217 15.1247 15.1641 15.7982 14.7689 16.6036C14.5419 17.0661 14.4257 17.541 14.4257 18.0055C14.4257 19.1613 15.1308 20.2958 16.1644 20.803C17.0953 21.2598 18.0374 21.2598 18.9683 20.803C19.7844 20.4026 20.4504 19.546 20.6362 18.6582C20.7841 17.9512 20.6949 17.2784 20.3638 16.6036C20.0809 16.027 19.5449 15.491 18.9683 15.2081C18.2959 14.8782 17.5939 14.7871 16.8895 14.9384Z" fill="#2C2B46"/>
</svg>
