<svg width="30" height="28" viewBox="0 0 30 28" fill="none" xmlns="http://www.w3.org/2000/svg">
<path d="M10.6197 27.5791C8.46035 28.6664 6.56193 26.9096 5.44628 25.0959C5.06839 24.4787 4.75349 23.8424 4.50607 23.2679C4.01122 22.1237 3.54337 20.9604 3.02153 19.8304C2.70213 19.1372 2.39172 18.4962 2.27476 17.7223C1.70793 14.0616 4.7355 10.3581 8.31639 10.8946C9.83692 11.1226 11.4474 11.8727 11.6948 13.6437C11.8298 14.6076 11.5914 15.5857 11.227 16.4688C10.8851 17.2997 10.5702 17.8884 10.7096 18.8333C10.9391 20.4001 12.0592 21.6109 12.7565 22.9545C13.1389 23.681 13.5213 26.1215 10.6197 27.5791ZM10.5837 10.624C11.5014 10.624 12.2437 9.84059 12.2437 8.872C12.2437 7.90341 11.5014 7.12 10.5837 7.12C9.66597 7.12 8.9237 7.90341 8.9237 8.872C8.9237 9.84059 9.66597 10.624 10.5837 10.624ZM7.17824 10.2584C7.87553 10.2584 8.43785 9.62219 8.43785 8.83402C8.43785 8.0506 7.87103 7.40962 7.17824 7.40962C6.48096 7.40962 5.91863 8.04585 5.91863 8.83402C5.91863 9.62219 6.48546 10.2584 7.17824 10.2584ZM4.65002 11.2887C5.26633 11.1558 5.65321 10.4768 5.51825 9.77887C5.3788 9.08092 4.77149 8.62036 4.15068 8.7533C3.53437 8.88625 3.14749 9.56521 3.28245 10.2632C3.4219 10.9659 4.02922 11.4264 4.65002 11.2887ZM1.8294 12.8271C2.40972 13.0787 3.04402 12.8651 3.24646 12.3475C3.44889 11.83 3.14299 11.208 2.56717 10.9516C1.98685 10.7 1.35254 10.9136 1.15011 11.4312C0.947669 11.9487 1.24908 12.5754 1.8294 12.8271ZM1.23558 13.4965C0.745231 13.3684 0.254883 13.6485 0.142418 14.128C0.0299525 14.6076 0.335858 15.1014 0.826206 15.2296C1.31655 15.3578 1.8069 15.0776 1.91937 14.5981C2.03183 14.1185 1.72593 13.6247 1.23558 13.4965Z" fill="#32314B"/>
<path d="M26.9633 11.1605C26.8463 11.9297 26.5359 12.5754 26.2165 13.2686C25.6947 14.3986 25.2268 15.5619 24.732 16.7062C24.4846 17.2807 24.1697 17.9216 23.7918 18.5341C22.6806 20.3479 20.7822 22.1046 18.6184 21.0173C15.7168 19.5597 16.0947 17.1145 16.477 16.388C17.1788 15.0444 18.2945 13.8336 18.5239 12.2668C18.6634 11.3267 18.344 10.7332 18.0066 9.90228C17.6467 9.0239 17.4037 8.04106 17.5387 7.07722C17.7861 5.30622 19.3966 4.55129 20.9172 4.32813C24.5026 3.79636 27.5301 7.49979 26.9633 11.1605ZM18.6544 4.06225C19.5721 4.06225 20.3143 3.27883 20.3143 2.31024C20.3143 1.34165 19.5721 0.558228 18.6544 0.558228C17.7366 0.558228 16.9944 1.34165 16.9944 2.31024C16.9944 3.27883 17.7366 4.06225 18.6544 4.06225ZM22.0598 3.69665C22.7571 3.69665 23.3194 3.06042 23.3194 2.27225C23.3194 1.48883 22.7526 0.847855 22.0598 0.847855C21.3625 0.847855 20.8002 1.48409 20.8002 2.27225C20.7957 3.06042 21.3625 3.69665 22.0598 3.69665ZM24.588 4.72696C25.2043 4.85991 25.8161 4.4041 25.9556 3.7014C26.0951 3.00344 25.7037 2.32448 25.0874 2.19154C24.4711 2.05859 23.8593 2.5144 23.7198 3.2171C23.5848 3.91506 23.9717 4.58927 24.588 4.72696ZM25.9916 5.78577C26.194 6.3033 26.8283 6.51696 27.4087 6.26532C27.989 6.01367 28.2949 5.38694 28.0879 4.8694C27.8855 4.35187 27.2512 4.13821 26.6709 4.38986C26.0951 4.6415 25.7892 5.26824 25.9916 5.78577ZM29.0956 7.56152C28.9832 7.08197 28.4928 6.80184 28.0025 6.93003C27.5121 7.05823 27.2062 7.55202 27.3187 8.03157C27.4311 8.51112 27.9215 8.79125 28.4118 8.66305C28.9022 8.53486 29.2081 8.04106 29.0956 7.56152Z" fill="#32314B"/>
</svg>
