<svg width="30" height="31" viewBox="0 0 30 31" fill="none" xmlns="http://www.w3.org/2000/svg">
<path opacity="0.4" fill-rule="evenodd" clip-rule="evenodd" d="M4.14288 0.8391C3.85667 0.98418 3.68389 1.26999 3.68389 1.59845C3.68389 1.92691 3.85667 2.21272 4.14288 2.3578C4.32636 2.45084 4.56347 2.45759 7.1565 2.44368C9.89765 2.42902 9.97503 2.42553 10.1289 2.31057C10.4126 2.09861 10.5163 1.90802 10.5163 1.59845C10.5163 1.28888 10.4126 1.09829 10.1289 0.886334C9.97503 0.771369 9.89765 0.767877 7.1565 0.75322C4.56347 0.739308 4.32636 0.746063 4.14288 0.8391ZM26.5198 0.836695C26.4103 0.893548 26.2622 1.02758 26.1908 1.13458C26.0777 1.30394 26.0608 1.40207 26.0608 1.89319V2.45725L25.5315 2.45736C24.9176 2.45742 24.6776 2.54702 24.4739 2.85218C24.2016 3.25988 24.3611 3.85251 24.8029 4.07454C24.9496 4.14828 25.1417 4.17467 25.5315 4.17473L26.0608 4.17484V4.7389C26.0608 5.23002 26.0777 5.32815 26.1908 5.49751C26.5391 6.01914 27.2301 6.00701 27.6292 5.47226C27.7226 5.34705 27.7496 5.20649 27.7679 4.75098L27.7906 4.18515L28.3525 4.16568C28.8109 4.14982 28.9433 4.12452 29.0722 4.02816C29.3558 3.8161 29.4595 3.62556 29.4595 3.31605C29.4595 3.00654 29.3558 2.816 29.0722 2.60393C28.9433 2.50757 28.8109 2.48227 28.3525 2.46641L27.7906 2.44694L27.7679 1.88111C27.7436 1.27651 27.6851 1.13281 27.3658 0.894349C27.1541 0.736216 26.7647 0.709708 26.5198 0.836695ZM0.651847 4.27429C0.36564 4.41937 0.192871 4.70518 0.192871 5.03364C0.192871 5.36211 0.36564 5.64791 0.651847 5.79299C0.835384 5.88603 1.0738 5.89279 3.69408 5.87887C6.46413 5.86422 6.54116 5.86078 6.69511 5.74576C6.9788 5.53381 7.08251 5.34321 7.08251 5.03364C7.08251 4.72408 6.9788 4.53348 6.69511 4.32153C6.54116 4.20651 6.46413 4.20307 3.69408 4.18841C1.0738 4.1745 0.835384 4.18126 0.651847 4.27429ZM21.3119 24.9976C21.2024 25.0544 21.0543 25.1884 20.9828 25.2954C20.8697 25.4648 20.8529 25.5629 20.8529 26.0541V26.6181L20.3235 26.6182C19.7097 26.6183 19.4697 26.7079 19.2659 27.013C18.9937 27.4207 19.1532 28.0134 19.595 28.2354C19.7416 28.3091 19.9338 28.3355 20.3235 28.3356L20.8529 28.3357V28.8998C20.8529 29.3909 20.8697 29.489 20.9828 29.6584C21.3311 30.18 22.0222 30.1679 22.4213 29.6331C22.5147 29.5079 22.5417 29.3674 22.56 28.9118L22.5827 28.346L23.1445 28.3265C23.603 28.3107 23.7354 28.2854 23.8642 28.189C24.1479 27.977 24.2515 27.7864 24.2515 27.4769C24.2515 27.1674 24.1479 26.9769 23.8642 26.7648C23.7354 26.6684 23.603 26.6431 23.1445 26.6273L22.5827 26.6078L22.56 26.042C22.5357 25.4374 22.4772 25.2937 22.1579 25.0552C21.9462 24.8971 21.5568 24.8706 21.3119 24.9976Z" fill="#2C2B46"/>
<path fill-rule="evenodd" clip-rule="evenodd" d="M15.2152 2.09694C14.4728 2.19742 13.4419 2.59848 12.7687 3.04883C12.0646 3.5198 9.05008 6.56824 8.74871 7.11392C8.3956 7.7535 8.2531 8.28097 8.22036 9.07009L8.1918 9.75713L10.5875 7.37792C13.1253 4.85763 13.2249 4.77467 13.9808 4.55253C14.3845 4.43396 15.1874 4.43396 15.5911 4.55253C16.4039 4.79139 17.1037 5.37761 17.4664 6.12339L17.6766 6.55553L18.077 6.41687C18.6457 6.21986 19.4034 6.22106 19.9711 6.4199C21.6945 7.02341 22.4708 8.81744 21.7494 10.5301C21.7224 10.5941 21.8257 10.6691 22.1555 10.8252C23.6039 11.5106 24.2231 13.2333 23.5748 14.7733C23.5443 14.8456 23.6314 14.911 23.9771 15.0752C24.5126 15.3296 25.0918 15.8884 25.3301 16.3804C25.7798 17.3087 25.7702 18.3028 25.3029 19.1993C25.1575 19.4781 24.7648 19.907 23.3302 21.3537C22.3451 22.3471 21.5391 23.1813 21.5391 23.2075C21.5391 23.2337 21.8804 23.2427 22.2974 23.2275C22.922 23.2047 23.1365 23.1725 23.5135 23.045C24.3884 22.7491 24.6355 22.5582 26.3652 20.8416C28.0755 19.1443 28.383 18.7853 28.773 18.0302C29.602 16.4253 29.6588 14.4086 28.921 12.7807C28.4701 11.7858 28.4658 11.781 24.1487 7.44874C19.7182 3.00263 19.6543 2.94589 18.589 2.51059C17.7889 2.18368 17.0827 2.05469 16.1505 2.06516C15.7305 2.06986 15.3096 2.08417 15.2152 2.09694ZM14.2355 6.2814C14.1374 6.33517 12.0771 8.34424 9.65711 10.746C5.4578 14.9136 5.25533 15.1055 5.21761 14.9541C5.19587 14.8668 5.11265 13.6103 5.03276 12.1618L4.88751 9.52812L4.70031 9.15815C4.1608 8.09158 2.72828 7.88741 1.9365 8.76419C1.58911 9.14888 1.52106 9.37525 1.42165 10.4777C1.25528 12.3221 1.14466 13.2358 0.677375 16.6275C0.234128 19.8446 0.224749 19.9454 0.222746 21.5227C0.221201 22.7386 0.238998 23.0687 0.328963 23.4979C0.653343 25.0452 1.34869 26.2821 2.59235 27.5241C3.80065 28.7307 5.27249 29.5199 7.00267 29.8889C7.78964 30.0567 9.38019 30.0737 10.1918 29.923C11.3387 29.7099 12.4986 29.2398 13.494 28.5845C14.0163 28.2406 14.5246 27.7515 18.8917 23.3911C21.6977 20.5894 23.7536 18.4929 23.8103 18.3753C23.864 18.2643 23.9179 18.0188 23.9303 17.8298C23.9756 17.1386 23.4686 16.5543 22.7735 16.4966C22.1923 16.4484 22.1883 16.4514 20.137 18.4904C18.1074 20.5078 18.1138 20.5029 17.6246 20.4111C17.0812 20.3091 16.8051 19.6985 17.0713 19.1873C17.1321 19.0705 18.2421 17.9186 19.538 16.6275C21.1039 15.0675 21.9302 14.2033 22.0015 14.0511C22.2208 13.5834 22.1003 12.9251 21.7323 12.5799C21.3881 12.2569 20.7929 12.152 20.3498 12.336C20.205 12.3961 19.3506 13.2089 17.6761 14.8794C15.5244 17.0258 15.1882 17.3393 15.0006 17.3738C14.3246 17.4979 13.8303 17.0036 13.954 16.3269C13.9885 16.1382 14.3622 15.7419 17.0449 13.0492C18.7233 11.3645 20.1342 9.90885 20.1801 9.81439C20.3124 9.54243 20.3401 9.28972 20.2727 8.9679C20.2213 8.7224 20.1568 8.61705 19.9096 8.37516C19.4682 7.94324 18.9755 7.86051 18.4487 8.12982C18.3385 8.18616 16.9221 9.56253 15.301 11.1885C13.68 12.8144 12.2581 14.1945 12.1414 14.2553C11.6304 14.5217 11.02 14.2455 10.9181 13.7018C10.8243 13.2017 10.7701 13.2688 13.4144 10.6159C15.0842 8.94076 15.8966 8.08603 15.9567 7.94118C16.2212 7.30378 15.9114 6.52799 15.2885 6.26772C15.0059 6.14961 14.4631 6.15665 14.2355 6.2814Z" fill="#2C2B46"/>
</svg>
