<svg width="30" height="31" viewBox="0 0 30 31" fill="none" xmlns="http://www.w3.org/2000/svg">
<path fill-rule="evenodd" clip-rule="evenodd" d="M4.19586 0.829365C3.33885 0.999818 2.58687 1.66523 2.28447 2.52076C2.17699 2.82481 2.16436 3.01806 2.14225 4.69905C2.12693 5.86263 2.14122 6.71644 2.18093 7.01152C2.26339 7.62425 2.49406 8.11321 2.88348 8.50086C3.44713 9.06187 4.0454 9.28284 5.00086 9.28284H5.55153L5.56868 11.2114C5.58525 13.0825 5.58966 13.1477 5.71531 13.4028C6.31113 14.6119 7.92949 14.7265 8.6793 13.6126C8.93375 13.2345 8.9857 12.8331 8.9857 11.2437C8.9857 9.91185 8.98952 9.8654 9.11541 9.677C9.45631 9.16673 10.1722 9.16673 10.5131 9.677C10.6244 9.84363 10.6428 9.94551 10.6428 10.395C10.6428 11.3215 10.7679 11.7575 11.1491 12.1591C12.0135 13.0697 13.5128 12.7514 13.9651 11.5611C14.0539 11.3274 14.0713 11.1179 14.0713 10.2822V9.28284H18.0592C22.4296 9.28284 22.4142 9.28392 23.0108 8.94107C23.3565 8.74245 23.7727 8.32263 23.9757 7.96778C24.1855 7.6011 24.2978 7.05729 24.2988 6.4037L24.2996 5.83874L24.8374 5.86691C25.4255 5.89766 25.652 5.98708 25.865 6.27262C25.9776 6.42336 25.9864 6.51593 26.0017 7.70116C26.0176 8.92542 26.0137 8.97725 25.8874 9.22438C25.8156 9.36512 25.6796 9.52421 25.5853 9.57798C25.4911 9.63175 23.243 10.2937 20.5896 11.049C17.9362 11.8043 15.6305 12.4904 15.4658 12.5738C15.301 12.6572 15.0339 12.857 14.8722 13.0178C14.2809 13.6061 14.0736 14.1892 14.0721 15.2684L14.0713 15.9113H14.9236H15.776L15.795 15.2295C15.8155 14.4991 15.8612 14.3715 16.1891 14.13C16.2657 14.0736 18.5012 13.409 21.1569 12.6532C23.8125 11.8975 26.1229 11.2125 26.291 11.1311C26.9724 10.8013 27.5463 10.0077 27.669 9.2257C27.7398 8.77497 27.7435 6.94495 27.6747 6.41193C27.5821 5.69355 27.1488 5.00127 26.5389 4.59728C26.1122 4.31466 25.6376 4.19723 24.9222 4.19723H24.2996L24.2988 3.6401C24.2983 3.33371 24.2591 2.91806 24.2116 2.71658C24.0194 1.901 23.3641 1.1881 22.5364 0.893821C22.2946 0.80788 21.4818 0.79868 13.357 0.78988C8.45428 0.784566 4.33174 0.802337 4.19586 0.829365Z" fill="#2C2B46"/>
<path opacity="0.4" fill-rule="evenodd" clip-rule="evenodd" d="M10.9507 17.7646C10.7337 17.8592 10.6421 18.09 10.6456 18.5341C10.6511 19.2441 10.671 19.2803 11.5226 20.1336L12.3006 20.9131L11.8063 23.3406C11.3624 25.5208 11.3121 25.8323 11.3121 26.3968C11.3121 26.9306 11.3355 27.0943 11.4675 27.4825C11.7216 28.2304 12.124 28.8108 12.6889 29.2447C13.3971 29.7887 14.0153 29.9961 14.9287 29.9961C15.8421 29.9961 16.4603 29.7887 17.1685 29.2447C17.7388 28.8067 18.1624 28.1986 18.3962 27.4825C18.5203 27.1021 18.5454 26.9198 18.5453 26.3968C18.5451 25.8327 18.4945 25.5194 18.0513 23.3421L17.5574 20.9159L18.3573 20.1092L19.1572 19.3024V18.7764C19.1572 18.1982 19.0773 17.9247 18.8648 17.7759C18.745 17.692 18.3546 17.6829 14.9303 17.6849C11.8599 17.6868 11.0946 17.7021 10.9507 17.7646Z" fill="#2C2B46"/>
</svg>
