<svg width="30" height="30" viewBox="0 0 30 30" fill="none" xmlns="http://www.w3.org/2000/svg">
<path fill-rule="evenodd" clip-rule="evenodd" d="M1.62384 0.0772528C1.25998 0.190328 0.772495 0.643373 0.597256 1.03132C0.46723 1.31913 0.460938 1.3899 0.460938 2.56399C0.460938 3.73808 0.46723 3.80885 0.597256 4.09666C0.783426 4.50877 1.26061 4.94 1.65847 5.05571C1.91904 5.13151 2.4787 5.14136 5.73194 5.12767L9.50329 5.11176L9.79648 4.957C10.1617 4.76429 10.5252 4.35813 10.6436 4.01055C10.7737 3.62861 10.7737 1.49937 10.6436 1.11743C10.5252 0.769845 10.1617 0.363691 9.79648 0.170976L9.50329 0.0162208L5.69748 0.00511371C2.50582 -0.00421857 1.84847 0.00740384 1.62384 0.0772528ZM25.3743 0.476823C25.0101 0.591673 24.5224 1.04552 24.3477 1.43209L24.2114 1.73382V5.54116V9.3485L24.3477 9.65022C24.4319 9.83664 24.603 10.0608 24.7955 10.2367C25.2619 10.6631 25.4666 10.7063 26.9158 10.6838C28.0786 10.6657 28.1091 10.6621 28.3963 10.5106C28.5575 10.4255 28.7938 10.2372 28.9213 10.0923C29.3466 9.609 29.3335 9.75368 29.3335 5.54116C29.3335 1.32864 29.3466 1.47332 28.9213 0.989984C28.7938 0.845076 28.5575 0.656827 28.3963 0.571749C28.1066 0.418883 28.0881 0.416822 26.8726 0.404684C25.9198 0.395123 25.5817 0.411383 25.3743 0.476823ZM20.8062 1.28696C17.4797 1.64336 14.697 4.0836 13.9072 7.3369C13.6865 8.24637 13.6453 9.20216 13.664 12.9841L13.6811 16.4479L17.959 16.4626L22.237 16.4773V13.1562V9.83515H22.4078H22.5786L22.5366 9.47732C22.4818 9.01099 22.4818 2.07133 22.5366 1.605L22.5786 1.24717L21.7926 1.25633C21.3603 1.26136 20.9164 1.27516 20.8062 1.28696ZM2.7423 14.5009C2.61204 14.5483 2.23862 14.7021 1.91247 14.8427L1.31939 15.0983L1.30245 17.0613C1.27887 19.7935 1.38915 20.7874 1.87257 22.1973C2.7799 24.8436 4.72921 27.0487 7.21408 28.2401C8.01021 28.6217 8.36921 28.7536 9.18508 28.9641C12.0735 29.7095 15.1158 29.1817 17.63 27.499C20.4925 25.583 22.237 22.3442 22.237 18.9454V18.1941H17.9499H13.6629L13.6415 18.781C13.6167 19.4641 13.503 19.7607 13.1172 20.1488C12.7463 20.5219 12.3442 20.6845 11.7925 20.6845C11.0127 20.6845 10.4306 20.3259 10.0911 19.6363L9.9039 19.2561L9.87528 17.1693L9.84667 15.0825L9.11715 14.7749C8.05966 14.329 7.98125 14.3271 7.12955 14.7273C6.20843 15.1602 5.73863 15.2594 5.16519 15.1425C4.92133 15.0927 4.48673 14.9314 4.12149 14.7552C3.42797 14.4206 3.11927 14.3636 2.7423 14.5009Z" fill="#2C2B46"/>
<path opacity="0.4" fill-rule="evenodd" clip-rule="evenodd" d="M1.2915 9.97208C1.2915 11.7546 1.30518 13.213 1.32195 13.213C1.33872 13.213 1.44814 13.1718 1.56518 13.1214C2.14011 12.8738 2.61157 12.7466 3.06563 12.7163C3.49148 12.6879 3.60749 12.7026 3.997 12.834C4.24171 12.9166 4.65365 13.0906 4.91245 13.2208C5.17582 13.3533 5.47135 13.4598 5.58381 13.4627C5.71762 13.4662 6.01413 13.3591 6.47117 13.1423C6.84871 12.9631 7.27347 12.7904 7.41512 12.7585C7.99766 12.6274 8.76558 12.7401 9.49681 13.064C9.68172 13.146 9.84271 13.213 9.8545 13.213C9.86635 13.213 9.87601 11.7608 9.87601 9.98605V6.75903L9.59175 6.81073C9.23463 6.87566 1.52798 6.84697 1.39166 6.78022C1.29688 6.73378 1.2915 6.90497 1.2915 9.97208Z" fill="#2C2B46"/>
</svg>
